<svg width="300" height="300" viewBox="0 0 300 300" fill="none" xmlns="http://www.w3.org/2000/svg">
<path fill-rule="evenodd" clip-rule="evenodd" d="M5.74911 28.8005C0 40.0838 0 54.8544 0 84.3956V215.604C0 245.146 0 259.916 5.74911 271.199C10.8062 281.125 18.8755 289.194 28.8005 294.251C40.0838 300 54.8544 300 84.3956 300H215.604C245.146 300 259.916 300 271.199 294.251C281.125 289.194 289.194 281.125 294.251 271.199C300 259.916 300 245.146 300 215.604V84.3956C300 54.8544 300 40.0838 294.251 28.8005C289.194 18.8755 281.125 10.8062 271.199 5.74911C259.916 0 245.146 0 215.604 0H84.3956C54.8544 0 40.0838 0 28.8005 5.74911C18.8755 10.8062 10.8062 18.8755 5.74911 28.8005ZM210.953 88.6856C213.538 86.1008 217.044 84.6486 220.699 84.6486H244.282C247.086 84.6486 249.36 82.3749 249.36 79.5701V51.6385C249.36 48.8337 247.086 46.56 244.282 46.56H216.35C213.545 46.56 211.271 48.8337 211.271 51.6385V76.0289C211.271 79.1199 210.044 82.0843 207.858 84.2699C205.672 86.4556 202.708 87.6834 199.617 87.6834H174.859C172.626 87.6834 170.654 89.1422 170.002 91.2779L132.694 213.376L95.3865 91.2779C94.734 89.1422 92.7629 87.6834 90.5297 87.6834H62.6818C59.2877 87.6834 56.8488 90.9488 57.8121 94.2033L101.782 242.749C102.42 244.906 104.402 246.386 106.651 246.386H158.737C160.987 246.386 162.968 244.906 163.607 242.749L207.483 94.5199C208.135 92.3162 209.328 90.3107 210.953 88.6856Z" fill="black"/>
</svg>
