<?xml version="1.0" encoding="UTF-8"?>
<svg xmlns="http://www.w3.org/2000/svg" xmlns:xlink="http://www.w3.org/1999/xlink" width="2000px" height="2000px" viewBox="0 0 2000 2000" version="1.1">
<g id="surface1">
<path style=" stroke:none;fill-rule:evenodd;fill:rgb(100%,100%,100%);fill-opacity:1;" d="M 38.328125 192.003906 C 0 267.226562 0 365.695312 0 562.636719 L 0 1437.359375 C 0 1634.308594 0 1732.773438 38.328125 1807.992188 C 72.042969 1874.167969 125.835938 1927.960938 192.003906 1961.671875 C 267.226562 2000 365.695312 2000 562.636719 2000 L 1437.359375 2000 C 1634.308594 2000 1732.773438 2000 1807.992188 1961.671875 C 1874.167969 1927.960938 1927.960938 1874.167969 1961.671875 1807.992188 C 2000 1732.773438 2000 1634.308594 2000 1437.359375 L 2000 562.636719 C 2000 365.695312 2000 267.226562 1961.671875 192.003906 C 1927.960938 125.835938 1874.167969 72.042969 1807.992188 38.328125 C 1732.773438 0 1634.308594 0 1437.359375 0 L 562.636719 0 C 365.695312 0 267.226562 0 192.003906 38.328125 C 125.835938 72.042969 72.042969 125.835938 38.328125 192.003906 Z M 1406.351562 591.238281 C 1423.585938 574.003906 1446.960938 564.324219 1471.328125 564.324219 L 1628.546875 564.324219 C 1647.238281 564.324219 1662.398438 549.164062 1662.398438 530.46875 L 1662.398438 344.257812 C 1662.398438 325.558594 1647.238281 310.398438 1628.546875 310.398438 L 1442.332031 310.398438 C 1423.632812 310.398438 1408.472656 325.558594 1408.472656 344.257812 L 1408.472656 506.859375 C 1408.472656 527.464844 1400.292969 547.230469 1385.71875 561.800781 C 1371.148438 576.371094 1351.386719 584.554688 1330.78125 584.554688 L 1165.726562 584.554688 C 1150.839844 584.554688 1137.691406 594.28125 1133.347656 608.519531 L 884.625 1422.507812 L 635.910156 608.519531 C 631.558594 594.28125 618.417969 584.554688 603.53125 584.554688 L 417.878906 584.554688 C 395.25 584.554688 378.992188 606.324219 385.414062 628.023438 L 678.546875 1618.328125 C 682.800781 1632.707031 696.011719 1642.574219 711.007812 1642.574219 L 1058.246094 1642.574219 C 1073.246094 1642.574219 1086.453125 1632.707031 1090.714844 1618.328125 L 1383.21875 630.132812 C 1387.566406 615.441406 1395.519531 602.070312 1406.351562 591.238281 Z M 1406.351562 591.238281 "/>
</g>
</svg>
